<svg width="800" height="740" viewBox="0 0 800 740" fill="none" xmlns="http://www.w3.org/2000/svg">
<path d="M692.727 386.674C672.39 386.679 653.468 381.021 637.348 371.193C631.283 367.494 623.688 367.358 617.496 370.839C611.304 374.321 607.487 380.874 607.487 387.979V515.776C607.487 535.441 590.958 551.257 571.287 551.257H414.729C407.777 551.257 401.341 554.933 397.807 560.919C394.274 566.907 394.161 574.321 397.526 580.405C406.061 595.822 410.918 613.591 410.918 632.436C410.918 691.681 362.888 739.743 303.627 739.743C244.383 739.743 196.362 691.664 196.362 632.418C196.362 613.576 201.218 595.816 209.749 580.403C213.118 574.316 213.017 566.901 209.482 560.908C205.945 554.915 199.505 551.257 192.549 551.257H35.9953C16.3217 551.257 0.00163511 535.441 0.00163511 515.776V391.12C0.00163511 384.202 3.64139 377.794 9.58174 374.249C15.5221 370.704 22.8964 370.537 28.9807 373.828C44.1332 382.024 61.4801 386.677 79.916 386.672C139.171 386.68 187.199 338.638 187.199 279.389C187.199 220.136 139.171 172.1 79.916 172.116C61.4785 172.116 44.1316 176.772 28.979 184.964C22.8883 188.257 15.5156 188.103 9.56866 184.555C3.6234 181.005 0 174.592 0 167.671V35.6192C0 15.944 16.3184 -1.13873e-05 35.9937 -1.13873e-05H571.287C590.953 -1.13873e-05 607.487 15.944 607.487 35.6192V170.812C607.487 177.911 611.32 184.458 617.505 187.939C623.691 191.417 631.283 191.296 637.348 187.601C653.465 177.772 672.391 172.116 692.724 172.116C751.98 172.1 799.998 220.136 799.998 279.389C800 338.638 751.98 386.682 692.727 386.674Z" fill="black"/>
</svg>
