<svg width="707" height="800" viewBox="0 0 707 800" fill="none" xmlns="http://www.w3.org/2000/svg">
<path d="M26.0395 264.889L65.9218 264.836C72.9646 264.827 79.7137 261.962 84.6092 256.901C96.6183 244.454 112.683 237.588 129.851 237.555C164.615 237.522 192.963 265.775 193.016 300.558C193.016 335.362 164.782 363.65 130.078 363.71C112.889 363.754 96.795 356.941 84.7506 344.565C79.8396 339.535 73.106 336.683 66.0742 336.696L26.203 336.742C19.2971 336.753 12.6806 339.504 7.81602 344.391C2.95142 349.275 0.212072 355.883 0.212072 362.773C0.212072 362.773 0.212072 362.782 0.212072 362.811L0.534603 571.087C0.543439 577.995 3.29607 584.61 8.18056 589.477C13.0695 594.352 19.6926 597.087 26.5985 597.078L255.038 596.72H303.066L303.112 621.28V621.357C303.112 631.254 299.085 640.734 291.973 647.646C274.645 664.441 265.105 686.899 265.105 710.866V711.368C265.174 760.133 304.756 799.779 353.473 800.002C402.189 799.777 441.771 760.133 441.84 711.368V710.866C441.84 686.897 432.3 664.438 414.972 647.646C407.86 640.734 403.833 631.254 403.833 621.357V621.28L403.879 596.72H451.907L680.349 597.078C687.255 597.087 693.878 594.352 698.767 589.477C703.651 584.61 706.404 577.995 706.413 571.087L706.731 362.811C706.731 362.782 706.731 362.773 706.731 362.773C706.731 355.883 703.991 349.275 699.127 344.391C694.262 339.504 687.646 336.753 680.74 336.742L640.869 336.696C633.835 336.672 627.099 339.524 622.192 344.565C610.152 356.941 594.056 363.754 576.864 363.71C542.16 363.648 513.927 335.362 513.927 300.558C513.974 265.784 542.324 237.531 577.092 237.555C594.257 237.588 610.329 244.454 622.331 256.901C627.227 261.962 633.976 264.827 641.019 264.836L680.901 264.889C695.265 264.904 706.927 253.286 706.945 238.916L706.676 26.2428C706.676 26.2296 706.676 26.2163 706.676 26.203C706.676 11.8522 695.06 0.203229 680.704 0.185556L415.365 -4.80395e-05C408.457 -0.00888474 401.831 2.71504 396.945 7.59069C392.058 12.4575 389.303 19.0718 389.294 25.971L389.252 48.0495C389.252 48.0628 389.252 48.0716 389.252 48.0981C389.252 55.1344 392.115 61.8658 397.168 66.7768C409.477 78.7019 416.255 94.6632 416.255 111.689V112.041C416.207 146.694 388.084 174.856 353.477 175.013C318.87 174.856 290.747 146.694 290.699 112.041V111.689C290.699 94.6632 297.474 78.7019 309.786 66.7768C314.838 61.8658 317.704 55.1322 317.704 48.0981C317.704 48.0672 317.704 48.0584 317.704 48.0495L317.66 25.971C317.651 19.0718 314.896 12.4575 310.009 7.59069C305.123 2.71504 298.497 -0.00446639 291.589 -4.80395e-05L26.2494 0.185556C11.8941 0.207647 0.278344 11.8522 0.278344 26.203C0.278344 26.2163 0.278344 26.2296 0.278344 26.2428L-2.75279e-05 238.916C0.0132275 253.286 11.6754 264.904 26.0395 264.889Z" fill="black"/>
</svg>
